#N canvas 401 97 770 377 12;
#X obj 113 54 inlet;
#X text 92 25 time \, start_time \, loop_number \, A \, D \, S \, R
;
#X obj 29 251 play_note \$1 \$2 \$3 \$4 \$5 \$6 \$7;
#X obj 29 284 outlet;
#X obj 239 75 bng 15 250 50 0 empty empty empty 17 7 0 10 #fcfcfc #000000
#000000;
#X msg 285 75 64 0 0 0 64 0 0 0 64 0 0 0 64 0 0 0 64 0 0 0 64 0 0 0
64 0 64 0 64 0 64 0 61 0 0 0 61 0 0 0 61 0 0 0 61 0 0 0 61 0 0 0 61
0 0 0 61 0 0 0 61 0 0 0 68 0 0 0 68 0 0 0 68 0 0 0 68 0 0 0 68 0 0
0 68 0 0 0 68 0 68 0 68 0 68 0 63 0 0 0 63 0 0 0 63 0 0 0 63 0 0 0
63 0 0 0 63 0 0 0 63 0 0 0 63 0 0 0;
#X msg 284 159 3 0 0 0 3 0 0 0 3 0 0 0 3 0 0 0 3 0 0 0 3 0 0 0 2 0
1 0 2 0 1 0 3 0 0 0 3 0 0 0 3 0 0 0 3 0 0 0 3 0 0 0 3 0 0 0 3 0 0 0
3 0 0 0 3 0 0 0 3 0 0 0 3 0 0 0 3 0 0 0 3 0 0 0 3 0 0 0 2 0 1 0 2 0
1 0 3 0 0 0 3 0 0 0 3 0 0 0 3 0 0 0 3 0 0 0 3 0 0 0 3 0 0 0 3 0 0 0
;
#X connect 0 0 2 0;
#X connect 0 0 4 0;
#X connect 2 0 3 0;
#X connect 4 0 5 0;
#X connect 4 0 6 0;
#X connect 5 0 2 1;
#X connect 6 0 2 2;
