#N canvas 536 51 1386 900 12;
#X obj 262 405 r clap;
#X obj 261 444 bng 15 250 50 0 empty empty empty 17 7 0 10 #fcfcfc
#000000 #000000;
#X obj 567 389 noise~;
#X floatatom 645 372 5 0 0 0 - clap_cutoff - 0;
#X obj 708 413 t b f;
#X obj 661 469 + 500;
#X floatatom 711 379 5 0 0 0 - clap_width - 0;
#X obj 562 527 *~;
#N canvas 578 196 1072 785 multi_env 0;
#X obj 37 35 inlet;
#X obj 37 243 *~ 1;
#N canvas 935 229 450 510 vol_env 0;
#X obj 41 23 inlet;
#X obj 41 51 f 250;
#X msg 41 75 1 0.2 \, 0 \$1 0.2;
#X obj 41 99 vline~;
#X obj 41 123 *~;
#X obj 41 147 *~;
#X obj 41 171 outlet~;
#X obj 99 23 inlet;
#X connect 0 0 1 0;
#X connect 1 0 2 0;
#X connect 2 0 3 0;
#X connect 3 0 4 0;
#X connect 3 0 4 1;
#X connect 4 0 5 0;
#X connect 4 0 5 1;
#X connect 5 0 6 0;
#X connect 7 0 1 1;
#X restore 37 198 pd vol_env;
#X obj 37 268 outlet~;
#N canvas 935 229 450 510 vol_env 0;
#X obj 41 23 inlet;
#X obj 41 51 f 250;
#X msg 41 75 1 0.2 \, 0 \$1 0.2;
#X obj 41 99 vline~;
#X obj 41 123 *~;
#X obj 41 147 *~;
#X obj 41 171 outlet~;
#X obj 99 23 inlet;
#X connect 0 0 1 0;
#X connect 1 0 2 0;
#X connect 2 0 3 0;
#X connect 3 0 4 0;
#X connect 3 0 4 1;
#X connect 4 0 5 0;
#X connect 4 0 5 1;
#X connect 5 0 6 0;
#X connect 7 0 1 1;
#X restore 118 198 pd vol_env;
#X obj 118 64 del 20;
#N canvas 935 229 450 510 vol_env 0;
#X obj 41 23 inlet;
#X obj 41 51 f 250;
#X msg 41 75 1 0.2 \, 0 \$1 0.2;
#X obj 41 99 vline~;
#X obj 41 123 *~;
#X obj 41 147 *~;
#X obj 41 171 outlet~;
#X obj 99 23 inlet;
#X connect 0 0 1 0;
#X connect 1 0 2 0;
#X connect 2 0 3 0;
#X connect 3 0 4 0;
#X connect 3 0 4 1;
#X connect 4 0 5 0;
#X connect 4 0 5 1;
#X connect 5 0 6 0;
#X connect 7 0 1 1;
#X restore 204 198 pd vol_env;
#X obj 204 88 del 20;
#N canvas 935 229 450 510 vol_env 0;
#X obj 41 23 inlet;
#X obj 41 51 f 250;
#X msg 41 75 1 0.2 \, 0 \$1 0.2;
#X obj 41 99 vline~;
#X obj 41 123 *~;
#X obj 41 147 *~;
#X obj 41 171 outlet~;
#X obj 99 23 inlet;
#X connect 0 0 1 0;
#X connect 1 0 2 0;
#X connect 2 0 3 0;
#X connect 3 0 4 0;
#X connect 3 0 4 1;
#X connect 4 0 5 0;
#X connect 4 0 5 1;
#X connect 5 0 6 0;
#X connect 7 0 1 1;
#X restore 288 198 pd vol_env;
#X obj 288 113 del 20;
#X obj 312 20 inlet;
#X floatatom 360 125 5 0 0 0 - - - 0;
#X obj 360 148 * 5;
#X obj 417 71 inlet;
#X obj 417 95 t b f;
#X text 354 5 delay;
#X text 453 128 decay;
#X connect 0 0 2 0;
#X connect 0 0 5 0;
#X connect 1 0 3 0;
#X connect 2 0 1 0;
#X connect 4 0 1 0;
#X connect 5 0 7 0;
#X connect 5 0 4 0;
#X connect 6 0 1 0;
#X connect 7 0 9 0;
#X connect 7 0 6 0;
#X connect 8 0 1 0;
#X connect 9 0 8 0;
#X connect 10 0 11 0;
#X connect 10 0 9 1;
#X connect 10 0 7 1;
#X connect 10 0 5 1;
#X connect 11 0 12 0;
#X connect 11 0 2 1;
#X connect 11 0 4 1;
#X connect 11 0 6 1;
#X connect 12 0 8 1;
#X connect 13 0 14 0;
#X connect 14 0 12 0;
#X connect 14 1 12 1;
#X restore 264 478 pd multi_env;
#X floatatom 311 443 5 0 0 0 - clap_delay - 0;
#X floatatom 364 455 5 0 0 0 - clap_decay - 0;
#X text 322 417 delay;
#X text 401 424 decay;
#X text 740 353 width;
#X text 656 345 cutoff;
#X obj 559 574 *~ 1;
#X obj 786 503 tgl 15 0 empty empty empty 17 7 0 10 #fcfcfc #000000
#000000 0 1;
#X obj 787 611 s clap;
#X obj 788 549 metro 288;
#X floatatom 849 514 5 0 0 0 - clap_freq - 0;
#X obj 564 431 hip~ 1000;
#X obj 571 472 lop~ 600;
#X msg 617 716 \; clap_cutoff 2000 \; clap_width 500 \; clap_delay
16 \; clap_decay 30 \; clap_freq 432 \;;
#X obj 623 681 loadbang;
#X obj 64 544 outlet;
#X obj 113 62 inlet;
#X floatatom 81 259 5 0 0 0 time - - 0;
#X obj 290 217 loadbang;
#X obj 234 238 i \$1;
#X obj 386 237 i \$2;
#X floatatom 83 334 5 0 0 0 - - - 0;
#X floatatom 386 261 5 0 0 0 loop_num - - 0;
#X floatatom 234 263 5 0 0 0 start - - 0;
#X floatatom 491 259 5 0 0 0 - - - 0;
#X obj 491 216 bng 15 250 50 0 empty empty empty 17 7 0 10 #fcfcfc
#000000 #000000;
#X obj 83 357 sel -1;
#X floatatom 83 381 5 0 0 0 - - - 0;
#X obj 80 284 expr if ($f1 >= $f2 && $f1 <= ($f2 + ($f3 * $f4)) \,
$f1 - $f2 \, -1), f 66;
#X obj 98 419 % 8;
#X msg 529 235 32;
#X obj 121 467 sel 0;
#X obj 559 649 dac~ 2;
#X obj 158 139 unpack;
#X obj 563 610 *~;
#X obj 181 190 * 1.5;
#X connect 0 0 1 0;
#X connect 1 0 8 0;
#X connect 2 0 20 0;
#X connect 3 0 20 1;
#X connect 4 0 5 0;
#X connect 4 1 5 1;
#X connect 5 0 21 1;
#X connect 6 0 4 0;
#X connect 7 0 15 0;
#X connect 8 0 7 1;
#X connect 9 0 8 1;
#X connect 10 0 8 2;
#X connect 15 0 43 0;
#X connect 16 0 18 0;
#X connect 18 0 17 0;
#X connect 19 0 18 1;
#X connect 20 0 21 0;
#X connect 21 0 7 0;
#X connect 23 0 22 0;
#X connect 25 0 26 0;
#X connect 25 0 34 0;
#X connect 25 0 42 0;
#X connect 26 0 37 0;
#X connect 27 0 28 0;
#X connect 27 0 29 0;
#X connect 28 0 32 0;
#X connect 29 0 31 0;
#X connect 30 0 35 0;
#X connect 31 0 37 2;
#X connect 32 0 37 1;
#X connect 33 0 37 3;
#X connect 34 0 39 0;
#X connect 35 1 36 0;
#X connect 36 0 38 0;
#X connect 37 0 30 0;
#X connect 38 0 40 0;
#X connect 39 0 33 0;
#X connect 40 0 24 0;
#X connect 40 0 1 0;
#X connect 42 1 44 0;
#X connect 43 0 41 0;
#X connect 44 0 43 1;
