#N canvas 930 104 862 848 12;
#X obj 312 412 r kick;
#X obj 410 577 phasor~;
#X obj 407 612 expr~ $v1 >0.5;
#X obj 409 709 *~;
#X obj 315 462 bng 15 250 50 0 empty empty empty 17 7 0 10 #fcfcfc
#000000 #000000;
#X obj 411 743 *~ 0.25;
#X obj 436 482 f 250;
#X floatatom 538 453 5 0 0 0 - kick_decay - 0;
#N canvas 92 117 1293 826 kick_vol 0;
#X obj 82 166 vline~;
#X obj 84 196 *~;
#X msg 80 125 0.5 \, 1 5 \, 0.5 60 5 \, 0 \$1 65;
#X obj 74 72 inlet;
#X obj 86 233 outlet~;
#X connect 0 0 1 0;
#X connect 0 0 1 1;
#X connect 1 0 4 0;
#X connect 2 0 0 0;
#X connect 3 0 2 0;
#X restore 290 588 pd kick_vol;
#N canvas 121 146 1084 679 pitch_env 0;
#X obj 76 131 vline~;
#X obj 78 161 *~;
#X obj 68 37 inlet;
#X msg 74 90 1 \, 0.5 5 \, 0 \$1 5;
#X obj 72 242 +~ 29;
#X obj 72 268 mtof~;
#X obj 75 309 outlet~;
#X text 171 209 mini pitch- from 109 to 29;
#X obj 75 203 *~ 80;
#X connect 0 0 1 0;
#X connect 0 0 1 1;
#X connect 1 0 8 0;
#X connect 2 0 3 0;
#X connect 3 0 0 0;
#X connect 4 0 5 0;
#X connect 5 0 6 0;
#X connect 8 0 4 0;
#X restore 414 522 pd pitch_env;
#X obj 680 11 tgl 15 0 empty empty empty 17 7 0 10 #fcfcfc #000000
#000000 0 1;
#X obj 684 52 metro 450;
#X obj 689 100 s kick;
#X obj 409 549 *~ 1;
#X floatatom 613 523 5 0 0 0 - kick_pitch - 0;
#X obj 408 641 vcf~ 0.5;
#X obj 637 595 *~ 1.5;
#X floatatom 691 571 5 0 0 0 - kick_fliter - 0;
#X text 657 507 pitch scale;
#X text 736 567 fliter scale;
#X text 759 643 sin_scale;
#X floatatom 695 642 0 0 0 0 - kick_sin - 0;
#X obj 630 663 *~ 1;
#X obj 634 699 osc~;
#X text 595 448 decay;
#X msg 488 57 \; kick_decay 100 \; kick_pitch 1 \; kick_fliter 1.5
\; kick_sin 1.75 \;;
#X obj 113 62 inlet;
#X floatatom 81 259 5 0 0 0 time - - 0;
#X obj 290 217 loadbang;
#X obj 234 238 i \$1;
#X obj 386 237 i \$2;
#X floatatom 83 334 5 0 0 0 - - - 0;
#X floatatom 386 261 5 0 0 0 loop_num - - 0;
#X floatatom 234 263 5 0 0 0 start - - 0;
#X floatatom 491 259 5 0 0 0 - - - 0;
#X obj 491 216 bng 15 250 50 0 empty empty empty 17 7 0 10 #fcfcfc
#000000 #000000;
#X obj 83 357 sel -1;
#X floatatom 83 381 5 0 0 0 - - - 0;
#X obj 80 284 expr if ($f1 >= $f2 && $f1 <= ($f2 + ($f3 * $f4)) \,
$f1 - $f2 \, -1), f 66;
#X msg 529 236 32;
#X obj 84 416 % 8;
#X obj 86 448 sel 0;
#X obj 484 29 loadbang;
#X obj 75 516 outlet;
#X obj 409 814 dac~ 2;
#X obj 133 139 unpack;
#X obj 169 179 * 2, f 4;
#X obj 408 782 *~;
#X connect 0 0 4 0;
#X connect 1 0 2 0;
#X connect 2 0 15 0;
#X connect 3 0 5 0;
#X connect 4 0 6 0;
#X connect 5 0 47 0;
#X connect 6 0 8 0;
#X connect 6 0 9 0;
#X connect 7 0 6 1;
#X connect 8 0 3 0;
#X connect 9 0 13 0;
#X connect 9 0 16 0;
#X connect 10 0 11 0;
#X connect 11 0 12 0;
#X connect 13 0 1 0;
#X connect 13 0 22 0;
#X connect 14 0 13 1;
#X connect 15 1 3 1;
#X connect 16 0 15 1;
#X connect 17 0 16 1;
#X connect 21 0 22 1;
#X connect 22 0 23 0;
#X connect 23 0 3 1;
#X connect 26 0 27 0;
#X connect 26 0 35 0;
#X connect 26 0 45 0;
#X connect 27 0 38 0;
#X connect 28 0 29 0;
#X connect 28 0 30 0;
#X connect 29 0 33 0;
#X connect 30 0 32 0;
#X connect 31 0 36 0;
#X connect 32 0 38 2;
#X connect 33 0 38 1;
#X connect 34 0 38 3;
#X connect 35 0 39 0;
#X connect 36 1 37 0;
#X connect 37 0 40 0;
#X connect 38 0 31 0;
#X connect 39 0 34 0;
#X connect 40 0 41 0;
#X connect 41 0 4 0;
#X connect 41 0 43 0;
#X connect 42 0 25 0;
#X connect 45 1 46 0;
#X connect 46 0 47 1;
#X connect 47 0 44 0;
