#N canvas 2693 188 2880 1484 12;
#X obj 113 54 inlet;
#X text 92 25 time \, start_time \, loop_number \, A \, D \, S \, R
;
#X obj 29 251 play_note \$1 \$2 \$3 \$4 \$5 \$6 \$7;
#X obj 29 284 outlet;
#X obj 239 75 bng 15 250 50 0 empty empty empty 17 7 0 10 #fcfcfc #000000
#000000;
#X msg 284 159 3 0 0 0 3 0 0 0 3 0 0 0 3 0 0 0 3 0 0 0 3 0 0 0 2 0
1 0 2 0 1 0 3 0 0 0 3 0 0 0 3 0 0 0 3 0 0 0 3 0 0 0 3 0 0 0 3 0 0 0
3 0 0 0 3 0 0 0 3 0 0 0 3 0 0 0 3 0 0 0 3 0 0 0 3 0 0 0 2 0 1 0 2 0
1 0 3 0 0 0 3 0 0 0 3 0 0 0 3 0 0 0 3 0 0 0 3 0 0 0 3 0 0 0 3 0 0 0
;
#X msg 285 75 73 0 0 0 73 0 0 0 76 0 0 0 80 0 0 0 88 0 0 0 88 0 0 0
87 0 85 0 83 0 85 0 85 0 0 0 85 0 0 0 88 0 0 0 85 0 0 0 81 0 0 0 81
0 0 0 81 0 0 0 81 0 0 0 80 0 0 0 80 0 0 0 80 0 0 0 78 0 0 0 76 0 0
0 76 0 0 0 85 0 81 0 80 0 76 0 78 0 0 0 78 0 0 0 78 0 0 0 80 0 0 0
75 0 0 0 75 0 0 0 75 0 0 0 75 0 0 0;
#X connect 0 0 2 0;
#X connect 0 0 4 0;
#X connect 2 0 3 0;
#X connect 4 0 6 0;
#X connect 4 0 5 0;
#X connect 5 0 2 2;
#X connect 6 0 2 1;
